<svg id="mirror" xmlns="http://www.w3.org/2000/svg" viewBox="0 0 1000 1000"><defs><style>.cls-1{fill:none;stroke:#000;stroke-miterlimit:10;}</style></defs><title>spade</title><rect class="cls-1" x="-113" y="-113" width="1226" height="1226"/><path d="M500,687.26,641.65,932.6c15.54,26.91-3.88,60.55-35,60.55H393.31c-31.07,0-50.49-33.64-35-60.55Z"/><path d="M554.84,78.1,868.19,492.56c.22.29.42.59.61.9,139.31,228.24-234.9,447.15-369,194.19L497.6,97.3C497.6,68,537.19,54.76,554.84,78.1Z"/><path d="M554.84,78.1S530,46.83,500,46.83V96.49Z"/><rect class="cls-1" x="-113" y="-113" width="1226" height="1226"/><path d="M500,687.26,358.35,932.6c-15.54,26.91,3.88,60.55,35,60.55H606.69c31.07,0,50.49-33.64,35-60.55Z"/><path d="M445.16,78.1,131.81,492.56c-.22.29-.42.59-.61.9C-8.11,721.7,366.1,940.61,500.22,687.65L502.4,97.3C502.4,68,462.81,54.76,445.16,78.1Z"/><path d="M445.16,78.1S470,46.83,500,46.83V96.49Z"/></svg>