<svg id="Layer_1" data-name="Layer 1" xmlns="http://www.w3.org/2000/svg" xmlns:xlink="http://www.w3.org/1999/xlink" viewBox="0 0 2000 1000"><defs><style>.cls-1,.cls-3{fill:none;}.cls-2{clip-path:url(#clip-path);}.cls-3{stroke:#000;stroke-miterlimit:10;}.cls-4{fill:#ed1c24;}.cls-5{clip-path:url(#clip-path-3);}.cls-6{clip-path:url(#clip-path-5);}.cls-7{clip-path:url(#clip-path-7);}.cls-8{font-size:150.99px;}.cls-11,.cls-8{font-family:AXIS-ExtraBold, AXIS;font-weight:700;}.cls-9{letter-spacing:-0.06em;}.cls-10{letter-spacing:-0.06em;}.cls-11{font-size:792.42px;}</style><clipPath id="clip-path"><rect class="cls-1" y="500" width="500" height="500"/></clipPath><clipPath id="clip-path-3"><rect class="cls-1" x="500" width="500" height="500"/></clipPath><clipPath id="clip-path-5"><rect class="cls-1" x="500" y="500" width="500" height="500"/></clipPath><clipPath id="clip-path-7"><rect class="cls-1" width="500" height="500"/></clipPath></defs><title>logo</title><g class="cls-2"><g class="cls-2"><rect class="cls-3" x="-56.5" y="443.5" width="613" height="613"/><path class="cls-4" d="M228.77,518.23,18.23,728.77a30,30,0,0,0,0,42.46L228.77,981.77a30,30,0,0,0,42.46,0L481.77,771.23a30,30,0,0,0,0-42.46L271.23,518.23a30,30,0,0,0-42.46,0"/><rect class="cls-3" x="-56.5" y="443.5" width="613" height="613"/><path class="cls-4" d="M271.23,518.23,481.77,728.77a30,30,0,0,1,0,42.46L271.23,981.77a30,30,0,0,1-42.46,0L18.23,771.23a30,30,0,0,1,0-42.46L228.77,518.23a30,30,0,0,1,42.46,0"/></g></g><g class="cls-5"><g class="cls-5"><rect class="cls-3" x="443.5" y="-56.5" width="613" height="613"/><path class="cls-4" d="M750,84.78,728.77,457.55a30,30,0,0,0,42.46,0L947,281.78c145.59-145.59-51.41-342.59-197-197"/><rect class="cls-3" x="443.5" y="-56.5" width="613" height="613"/><path class="cls-4" d="M750,84.78l21.23,372.77a30,30,0,0,1-42.46,0L553,281.78c-145.59-145.59,51.41-342.59,197-197"/></g></g><g class="cls-6"><g class="cls-6"><rect class="cls-3" x="443.5" y="443.5" width="613" height="613"/><path d="M750,843.63,820.82,966.3a20.18,20.18,0,0,1-17.48,30.27H696.66a20.18,20.18,0,0,1-17.48-30.27Z"/><path d="M777.42,539,934.09,746.28c.11.15.21.3.31.45,69.66,114.12-117.34,223.38-184.4,96.9V548.25c0-14.63,18.6-20.87,27.42-9.2"/><path d="M777.42,539S765,523.42,750,523.42v24.83Z"/><rect class="cls-3" x="443.5" y="443.5" width="613" height="613"/><path d="M750,843.63,679.18,966.3a20.18,20.18,0,0,0,17.48,30.27H803.34a20.18,20.18,0,0,0,17.48-30.27Z"/><path d="M722.58,539,565.91,746.28c-.11.15-.21.3-.31.45C495.94,860.85,682.94,970.11,750,843.63V548.25c0-14.63-18.6-20.87-27.42-9.2"/><path d="M722.58,539S735,523.42,750,523.42v24.83Z"/></g></g><g class="cls-7"><g class="cls-7"><rect class="cls-3" x="-56.5" y="-56.5" width="613" height="613"/><path d="M250,363l60.87,105.43a16.32,16.32,0,0,1-14.13,24.48H203.26a16.32,16.32,0,0,1-14.13-24.48Z"/><path d="M370,159.5a120,120,0,1,0-120,120,120,120,0,0,0,120-120"/><path d="M461,290.5a120,120,0,1,0-120,120,120,120,0,0,0,120-120"/><rect class="cls-3" x="-56.5" y="-56.5" width="613" height="613"/><path d="M250,363,189.13,468.43a16.32,16.32,0,0,0,14.13,24.48h93.48a16.32,16.32,0,0,0,14.13-24.48Z"/><path d="M130,159.5a120,120,0,1,1,120,120,120,120,0,0,1-120-120"/><path d="M39,290.5a120,120,0,1,1,120,120,120,120,0,0,1-120-120"/></g></g><text class="cls-8" transform="translate(1000 249.88)">Bl<tspan class="cls-9" x="203.08" y="0">a</tspan><tspan x="319.64" y="0">ckj</tspan><tspan class="cls-10" x="650.16" y="0">a</tspan><tspan x="766.72" y="0">ck</tspan></text><text class="cls-11" transform="translate(955.22 873.54)">RL</text></svg>